<svg xmlns="http://www.w3.org/2000/svg" width="393" height="374"><path d="M 121 0 C 187.826 0 242 54.174 242 121 C 242 127.817 241.436 134.502 240.353 141.011 C 181.081 141.802 132.096 185.21 122.647 241.989 C 122.099 241.996 121.55 242 121 242 C 54.174 242 0 187.826 0 121 C 0 54.174 54.174 0 121 0 Z M 121 262 C 121 328.826 175.174 383 242 383 C 308.826 383 363 328.826 363 262 C 363 195.174 308.826 141 242 141 C 241.45 141 240.901 141.004 240.353 141.011 C 230.904 197.79 181.919 241.198 122.647 241.989 C 121.564 248.498 121 255.183 121 262 Z" transform="translate(14.668 -4.62) rotate(91 181.5 191.5)" fill="transparent" stroke-width="3" stroke="rgb(194, 133, 211)"></path><g transform="translate(167.921 109.824) rotate(141 28.103 77.541)"><path d="M 117.706 -0 C 108.257 56.779 59.272 100.187 0 100.978 C 9.449 44.199 58.434 0.791 117.706 -0 Z" transform="translate(-30.75 27.052) rotate(-49 58.853 50.489)" fill="rgb(194, 240, 204)" stroke-width="3" stroke="rgb(194, 133, 211)"></path><path d="M 11.579 125.176 L 47.579 114.676" fill="rgb(194, 240, 204)" stroke-width="3" stroke="rgb(194, 133, 211)"></path><path d="M 5.079 104.676 L 52.579 91.676" fill="rgb(194, 240, 204)" stroke-width="3" stroke="rgb(194, 133, 211)"></path><path d="M 2.579 61.676 L 50.579 50.676" fill="rgb(194, 240, 204)" stroke-width="3" stroke="rgb(194, 133, 211)"></path><path d="M 7.579 40.176 L 45.579 30.176" fill="rgb(194, 240, 204)" stroke-width="3" stroke="rgb(194, 133, 211)"></path></g></svg>