<svg xmlns="http://www.w3.org/2000/svg" width="563" height="559"><path d="M 121 0 C 187.826 0 242 54.174 242 121 C 242 137.826 238.565 153.851 232.359 168.41 C 195.014 177.474 164.444 203.865 149.641 238.59 C 140.459 240.819 130.867 242 121 242 C 54.174 242 0 187.826 0 121 C 0 54.174 54.174 0 121 0 Z M 140 286 C 140 352.826 194.174 407 261 407 C 327.826 407 382 352.826 382 286 C 382 219.174 327.826 165 261 165 C 251.133 165 241.541 166.181 232.359 168.41 C 217.556 203.135 186.986 229.526 149.641 238.59 C 143.435 253.149 140 269.174 140 286 Z" transform="translate(90.467 75.816) rotate(130 191 203.5)" fill="transparent" stroke-width="3" stroke="rgb(194, 133, 211)"></path></svg>