<!-- Unite -->
<svg xmlns="http://www.w3.org/2000/svg" width="1440" height="811"><path d="M -0.876 6 L 1438.875 6 L 1411.88 43.797 C 1385.884 82 1332.194 156.987 1278.903 184.347 C 1225.912 211.707 1172.221 189.413 1118.93 151.92 C 1065.94 114.427 1012.249 59.707 958.958 87.067 C 905.967 114.427 852.277 221.84 798.986 243.829 C 745.995 265.413 692.304 200.56 639.013 184.347 C 586.023 168.133 532.332 200.56 479.041 200.56 C 426.05 200.56 372.359 168.133 319.069 178.976 C 266.078 189.413 212.387 244.133 159.096 270.784 C 106.105 297.84 52.415 297.84 25.819 297.84 L -0.876 297.84 Z M -7.125 490.718 L 22.58 490.718 C 49.185 490.718 102.894 490.718 155.903 518.494 C 209.213 545.853 262.922 602.029 315.931 612.744 C 369.24 623.875 422.95 590.586 475.959 590.586 C 529.268 590.586 582.978 623.875 635.987 607.23 C 689.296 590.586 743.005 524.007 796.015 546.165 C 849.324 568.74 903.033 679.01 956.042 707.097 C 1009.352 735.185 1063.061 679.01 1116.07 640.519 C 1169.379 602.029 1223.089 579.142 1276.098 607.23 C 1329.407 635.318 1383.117 712.299 1409.121 751.517 L 1436.126 790.32 L 1439.875 804 L -6.875 804 Z" fill="hsl(0, 0%, 100%)"></path></svg>