<svg xmlns="http://www.w3.org/2000/svg" width="1440" height="786"><path d="M 1413 274.663 C 1387 238.035 1333.3 166.138 1280 139.906 C 1227 113.674 1173.3 135.048 1120 170.996 C 1067 206.944 1013.3 259.409 960 233.177 C 907 206.944 853.3 103.958 800 82.875 C 747 62.18 693.3 124.361 640 139.906 C 587 155.451 533.3 124.361 480 124.361 C 427 124.361 373.3 155.451 320 145.055 C 267 135.048 213.3 82.583 160 57.031 C 107 31.09 53.3 31.09 26.7 31.09 L 0 31.09 L 0 475.098 L 27 511.337 C 53 547.965 106.7 619.862 160 646.094 C 213 672.326 266.7 650.952 320 615.004 C 373 579.056 426.7 526.591 480 552.823 C 533 579.056 586.7 682.042 640 703.125 C 693 723.82 746.7 661.639 800 646.094 C 853 630.549 906.7 661.639 960 661.639 C 1013 661.639 1066.7 630.549 1120 640.945 C 1173 650.952 1226.7 703.417 1280 728.969 C 1333 754.91 1386.7 754.91 1413.3 754.91 L 1440 754.91 L 1440 310.902 Z" fill="rgb(194, 240, 204)"></path></svg>