<svg xmlns="http://www.w3.org/2000/svg" width="1440" height="805"><path d="M -0.125 -0.08 L 1439.875 -0.08 L 1439.818 0 L 0 0 L 0 291.92 L -0.125 291.92 Z M 1412.875 37.738 C 1386.875 75.962 1333.175 150.989 1279.875 178.364 C 1226.875 205.739 1173.175 183.434 1119.875 145.92 C 1066.875 108.406 1013.175 53.656 959.875 81.031 C 906.875 108.406 853.175 215.878 799.875 237.88 C 746.875 259.476 693.175 194.587 639.875 178.364 C 586.875 162.142 533.175 194.587 479.875 194.587 C 426.875 194.587 373.175 162.142 319.875 172.991 C 266.875 183.434 213.175 238.184 159.875 264.849 C 106.875 291.92 53.175 291.92 26.575 291.92 L 0 291.92 L 0 490.718 L 29.437 490.718 C 55.912 490.718 109.362 490.718 162.115 518.494 C 215.166 545.853 268.616 602.029 321.368 612.744 C 374.42 623.875 427.869 590.586 480.622 590.586 C 533.673 590.586 587.123 623.875 639.876 607.23 C 692.927 590.586 746.377 524.007 799.129 546.165 C 852.181 568.74 905.63 679.01 958.383 707.097 C 1011.434 735.185 1064.884 679.01 1117.637 640.519 C 1170.688 602.029 1224.137 579.142 1276.89 607.23 C 1329.942 635.318 1383.391 712.299 1409.27 751.517 L 1436.144 790.32 L 1439.875 804 L 0.124 804 L 0 648.148 L 0 805 L 1440 805 L 1440 0 L 1439.818 0 Z M -0.125 490.718 L 0 490.718 L -0 648.148 Z" fill="hsl(0, 0%, 100%)"></path></svg>